# xmcd
#
# Track frame offsets:
#      150
#      13040
#      27888
#      44215
#      58720
#      75693
#      94763
#      108098
#      123130
#      134110
#      161840
#      183125
#      206563
#      219320
#      235980
# 
# Disc length: 3405 seconds
#
# Revision: 3
# Processed by: cddbd v1.4PL0 Copyright (c) Steve Scherf et al.
#
# Submitted via: FreeRIP 1.21
#
DISCID=ce0d4b0f
DTITLE=Kiss - MTV Unplugged
DYEAR=1996
DGENRE=Rock
TTITLE0=Comin Home
TTITLE1=Plaster Caster
TTITLE2=Goin Blind
TTITLE3=Do You Love Me
TTITLE4=Domino
TTITLE5=Sure Know Something
TTITLE6=A World Without Heroes
TTITLE7=Rock Bottom
TTITLE8=See You Tonight
TTITLE9=I Still Love You
TTITLE10=Every Time I look At You
TTITLE11=2,000 Man
TTITLE12=Beth
TTITLE13=Nothin' To Lose
TTITLE14=Rock And Roll All Nite
EXTD=Live and Unpluuged -Orig Members
EXTT0=
EXTT1=
EXTT2=
EXTT3=
EXTT4=
EXTT5=
EXTT6=
EXTT7=
EXTT8=
EXTT9=
EXTT10=
EXTT11=
EXTT12=
EXTT13=
EXTT14=
PLAYORDER=
